# xmcd
# 
# Track frame offsets:
#     150
#     15700
#     37702
#     57415
#     78104
#     91315
#     105624
#     113661
#     124875
#     146234
# 
# Disc length: 2217
# 
# Revision: 0
# Processed by: cddbd v1.5.2PL0 Copyright (c) Steve Scherf et al.
# Submitted via: fre:ac v1.0.27
# 
DISCID=7908a70a
DTITLE=キンモクセイ - レアトラックス
DYEAR=2019
DGENRE=Pop
TTITLE0=逃げろ
TTITLE1=夢を見させて
TTITLE2=さらば
TTITLE3=波
TTITLE4=しんしんかんせん
TTITLE5=東京タワー
TTITLE6=花について
TTITLE7=SAKE
TTITLE8=オリジナルの恋じゃないけど
TTITLE9=アシタ 2019 New Mix
EXTD=
EXTT0=
EXTT1=
EXTT2=
EXTT3=
EXTT4=
EXTT5=
EXTT6=
EXTT7=
EXTT8=
EXTT9=
PLAYORDER=
